<svg width="41" height="44" viewBox="0 0 41 44" fill="none" xmlns="http://www.w3.org/2000/svg">
<path fill-rule="evenodd" clip-rule="evenodd" d="M16.3415 29.5581L18.3095 34.9838L20.7254 40.2578L21.9746 34.6914L23.5888 29.124L26.1327 25.5341L30.3722 23.0925L36.8137 20.7238L30.0101 19.3461L25.8301 16.8949L22.5072 13.7315L21.3388 8.12092L18.8816 2.80566L17.7969 8.44383L15.6562 13.944L13.3343 17.4967L9.23214 20.0159L3.25696 22.3675L9.35207 24.3059L14.1917 25.9213L16.3415 29.5581Z" fill="#F8F9FA"/>
<path fill-rule="evenodd" clip-rule="evenodd" d="M15.9007 17.0079C16.5825 16.166 17.0792 15.1408 17.6461 14.244C17.9607 13.7464 18.2266 13.3134 18.4424 12.7908C19.153 11.0617 20.0191 9.31377 20.591 7.55965C20.6083 7.62136 20.63 7.68274 20.6465 7.74451C21.0718 9.31076 21.0125 11.1028 21.1649 12.7349C21.2246 13.376 21.2003 13.7463 21.6001 14.2312C22.3038 15.0885 23.0012 15.9508 23.7121 16.803C24.1063 17.277 24.6355 17.6 25.154 17.9694C25.8917 18.4951 26.6398 19.2472 27.4927 19.6364C28.3217 20.0153 30.4322 20.3036 30.4322 20.3036C30.4322 20.3036 26.2761 22.62 25.5319 23.112C24.7768 23.6116 24.0547 25.3105 23.4604 25.974C22.7594 26.7574 22.2477 27.7654 21.6724 28.6158C21.3065 29.1553 20.9446 29.6208 20.7522 30.2054C20.162 32.0027 19.5232 33.7985 18.9805 35.6027C18.9614 35.6642 18.9466 35.7277 18.9284 35.7883C18.8671 35.5735 18.8023 35.359 18.7446 35.1424C18.2498 33.2898 17.8987 31.3866 17.4769 29.5124C16.9954 28.3706 16.5513 27.2069 16.0309 26.081C15.6289 25.2164 14.0168 24.9739 13.087 24.6157C11.0447 23.8268 9.57332 23.4345 7.51039 22.6798C8.99614 22.0091 10.4986 21.3538 11.938 20.6091C12.3772 20.3821 12.7949 20.1026 13.2028 19.8095C13.6178 19.5112 15.4069 17.6157 15.9007 17.0079ZM27.6917 25.4047C27.7751 25.1822 27.771 25.3109 27.6839 25.4192C27.6859 25.4144 27.6897 25.4095 27.6917 25.4047ZM27.6061 25.4745C27.5712 25.4956 27.5311 25.5118 27.4822 25.508C27.5116 25.5103 27.556 25.4961 27.6061 25.4745ZM10.1181 25.6913C10.8809 25.9858 11.6445 26.2809 12.4063 26.5754C12.5517 26.631 12.8039 26.6875 12.9524 26.7741C12.914 26.7778 13.047 26.9803 13.0753 27.0518C13.5295 28.2066 14.0402 29.3411 14.5228 30.4838C14.9439 32.3585 15.3012 34.26 15.7901 36.1142C16.2769 37.9557 16.9087 39.7601 17.4678 41.5785C17.6356 42.1301 20.3629 41.2653 20.5028 40.7553C21.4458 37.3104 22.4332 33.9062 23.5577 30.4838C23.7334 29.949 23.8545 29.388 24.1505 28.8842C24.7347 27.8954 25.4679 26.9407 26.1196 25.9793C26.2142 25.839 26.3803 25.6522 26.4584 25.4919C26.7641 25.3316 27.2914 24.8874 27.4354 24.7912C28.317 24.2095 29.2103 23.6367 30.0838 23.042C30.1024 23.0337 30.1104 23.0285 30.1325 23.0208C30.349 22.9372 30.5593 22.8336 30.7709 22.7412C31.4404 22.4487 32.109 22.1554 32.7775 21.8637C33.7976 21.418 34.8177 20.9722 35.8369 20.5265C36.1442 20.3919 36.856 19.9593 36.2422 19.822C34.355 19.4009 32.2599 19.1493 30.4714 18.5337C30.4431 18.5237 30.4243 18.5176 30.4088 18.5127C30.4491 18.5255 30.511 18.5428 30.4779 18.5241C30.372 18.4593 30.2771 18.3808 30.1785 18.3094C29.7077 17.9749 29.2387 17.6403 28.7688 17.3058C28.3495 17.0077 27.9311 16.7095 27.5126 16.4113C27.2013 16.1899 27.0889 16.1157 27.0041 16.0258C26.3042 15.2729 25.6958 14.4339 25.0462 13.6437C24.638 13.1456 24.446 12.9599 24.3886 12.3458C24.2255 10.5987 24.2354 8.74551 23.888 7.03918C23.5089 5.17879 22.7478 3.36915 22.1857 1.56087C22.0168 1.01545 19.2767 1.87209 19.1507 2.38406C18.7025 4.20272 18.2552 6.01978 17.8071 7.83616C17.4187 9.41161 16.5855 10.9841 15.9538 12.5184C15.3076 14.0871 14.4517 15.4358 13.5117 16.9239C13.4735 16.9846 13.0527 17.5619 12.9647 17.7526C12.7884 17.8733 12.6143 18.0022 12.4432 18.1226C11.5197 18.7698 10.423 19.3833 9.59039 20.1216C9.57411 20.1365 9.56772 20.1438 9.55509 20.1547C9.43095 20.2129 9.30593 20.2712 9.18092 20.3295C8.54705 20.6238 7.91314 20.919 7.27832 21.2149C6.26144 21.6878 5.24277 22.1615 4.22673 22.6351C4.11237 22.688 3.26263 23.154 3.64169 23.2942C5.80431 24.0853 7.9761 24.8651 10.1181 25.6913Z" fill="#212529"/>
</svg>
